<mxfile host="app.diagrams.net" modified="2021-02-04T12:18:49.783Z" agent="5.0 (Macintosh; Intel Mac OS X 11_2_0) AppleWebKit/537.36 (KHTML, like Gecko) Chrome/88.0.4324.96 Safari/537.36" etag="4NFp1S5Mp1uKQSrCPA_f" version="14.2.9" type="github">
  <diagram id="wDrhhhbncnmPJ3qnjKnf" name="full-stack-developer">
    <mxGraphModel dx="1186" dy="687" grid="1" gridSize="10" guides="1" tooltips="1" connect="1" arrows="1" fold="1" page="1" pageScale="1" pageWidth="850" pageHeight="1100" math="0" shadow="0">
      <root>
        <mxCell id="0" />
        <mxCell id="1" parent="0" />
        <mxCell id="trvjEH5c3W9_KcDelt6N-1" value="root" style="ellipse;whiteSpace=wrap;html=1;" vertex="1" parent="1">
          <mxGeometry x="335" y="570" width="90" height="40" as="geometry" />
        </mxCell>
        <mxCell id="trvjEH5c3W9_KcDelt6N-2" value="initialize a front-end project&lt;br style=&quot;font-size: 10px;&quot;&gt;based on VUE 3.0 and Element Plus" style="ellipse;whiteSpace=wrap;html=1;fontSize=10;" vertex="1" parent="1">
          <mxGeometry x="425" y="500" width="190" height="60" as="geometry" />
        </mxCell>
        <mxCell id="trvjEH5c3W9_KcDelt6N-3" value="initialize a front-end project&lt;br style=&quot;font-size: 10px;&quot;&gt;based on VUE 3.0 and Element Plus" style="ellipse;whiteSpace=wrap;html=1;fontSize=10;" vertex="1" parent="1">
          <mxGeometry x="420" y="390" width="190" height="60" as="geometry" />
        </mxCell>
      </root>
    </mxGraphModel>
  </diagram>
</mxfile>
